<?xml version="1.0" encoding="utf-8"?>
<!-- Generator: Adobe Illustrator 15.1.0, SVG Export Plug-In . SVG Version: 6.00 Build 0)  -->
<!DOCTYPE svg PUBLIC "-//W3C//DTD SVG 1.1//EN" "http://www.w3.org/Graphics/SVG/1.1/DTD/svg11.dtd">
<svg version="1.1" xmlns="http://www.w3.org/2000/svg" xmlns:xlink="http://www.w3.org/1999/xlink" x="0px" y="0px" width="180px"
	 height="40px" viewBox="0 0 180 40" enable-background="new 0 0 180 40" xml:space="preserve">
<g id="Background">
	
		<rect x="4.057" y="3.85" fill="#9BC86B" stroke="#27348B" stroke-width="8" stroke-miterlimit="10" width="172.274" height="32.533"/>
</g>
<g id="Layer_1">
	<line fill="none" stroke="#E5F0DB" stroke-width="4" stroke-miterlimit="10" x1="4.057" y1="20.116" x2="176.331" y2="20"/>
	<line fill="none" stroke="#E5F0DB" stroke-width="4" stroke-miterlimit="10" x1="67.458" y1="36.383" x2="67.458" y2="3.85"/>
	<line fill="none" stroke="#E5F0DB" stroke-width="4" stroke-miterlimit="10" x1="133.632" y1="36.383" x2="133.632" y2="3.85"/>
	<line fill="none" stroke="#E5F0DB" stroke-width="4" stroke-miterlimit="10" x1="45.277" y1="36.383" x2="45.277" y2="3.85"/>
	<line fill="none" stroke="#E5F0DB" stroke-width="4" stroke-miterlimit="10" x1="111.82" y1="36.383" x2="111.82" y2="3.85"/>
	<line fill="none" stroke="#E5F0DB" stroke-width="4" stroke-miterlimit="10" x1="89.82" y1="36.383" x2="89.82" y2="3.85"/>
	<line fill="none" stroke="#E5F0DB" stroke-width="4" stroke-miterlimit="10" x1="154.889" y1="36.383" x2="154.889" y2="3.85"/>
	<line fill="none" stroke="#E5F0DB" stroke-width="4" stroke-miterlimit="10" x1="25.499" y1="36.383" x2="25.499" y2="3.85"/>
	<line fill="none" stroke="#E5F0DB" stroke-width="4" stroke-miterlimit="10" x1="78.454" y1="36.267" x2="78.454" y2="3.734"/>
	<line fill="none" stroke="#E5F0DB" stroke-width="4" stroke-miterlimit="10" x1="144.627" y1="36.267" x2="144.627" y2="3.734"/>
	<line fill="none" stroke="#E5F0DB" stroke-width="4" stroke-miterlimit="10" x1="56.272" y1="36.267" x2="56.272" y2="3.734"/>
	<line fill="none" stroke="#E5F0DB" stroke-width="4" stroke-miterlimit="10" x1="122.815" y1="36.267" x2="122.815" y2="3.734"/>
	<line fill="none" stroke="#E5F0DB" stroke-width="4" stroke-miterlimit="10" x1="100.815" y1="36.267" x2="100.815" y2="3.734"/>
	<line fill="none" stroke="#E5F0DB" stroke-width="4" stroke-miterlimit="10" x1="164.59" y1="36.267" x2="164.59" y2="3.734"/>
	<line fill="none" stroke="#E5F0DB" stroke-width="4" stroke-miterlimit="10" x1="34.741" y1="36.383" x2="34.741" y2="3.85"/>
	<line fill="none" stroke="#E5F0DB" stroke-width="4" stroke-miterlimit="10" x1="16.072" y1="36.267" x2="16.072" y2="3.733"/>
	<rect x="4.057" y="3.85" fill="none" stroke="#312783" stroke-width="8" stroke-miterlimit="10" width="172.274" height="32.533"/>
</g>
</svg>
