<?xml version="1.0" encoding="utf-8"?>
<!-- Generator: Adobe Illustrator 15.1.0, SVG Export Plug-In . SVG Version: 6.00 Build 0)  -->
<!DOCTYPE svg PUBLIC "-//W3C//DTD SVG 1.1//EN" "http://www.w3.org/Graphics/SVG/1.1/DTD/svg11.dtd">
<svg version="1.1" xmlns="http://www.w3.org/2000/svg" xmlns:xlink="http://www.w3.org/1999/xlink" x="0px" y="0px" width="750px"
	 height="400px" viewBox="0 0 750 400" enable-background="new 0 0 750 400" xml:space="preserve">
<g id="background">
	<rect fill="#009FE3" stroke="#000000" stroke-miterlimit="10" width="750" height="400"/>
</g>
<g id="Layer_1">
	<rect x="202.667" y="97.826" fill="#3AAA35" width="20.667" height="27.595"/>
	<rect x="206.333" y="82.479" fill="#3AAA35" width="13.333" height="16.841"/>
	
		<line fill="none" stroke="#ECE434" stroke-width="6" stroke-miterlimit="10" x1="169.769" y1="324.416" x2="571.309" y2="324.416"/>
	
		<line fill="none" stroke="#ECE434" stroke-width="6" stroke-miterlimit="10" x1="169.769" y1="104.146" x2="571.309" y2="104.146"/>
	<path fill="none" stroke="#ECE434" stroke-width="6" stroke-miterlimit="10" d="M681.771,214.607
		c0-61.056-49.405-110.462-110.463-110.462"/>
	<path fill="none" stroke="#ECE434" stroke-width="6" stroke-miterlimit="10" d="M571.31,324.416
		c61.057-0.002,110.461-49.407,110.46-110.465"/>
	<path fill="none" stroke="#ECE434" stroke-width="6" stroke-miterlimit="10" d="M59.306,213.952
		c0,61.056,49.405,110.462,110.463,110.462"/>
	<path fill="none" stroke="#ECE434" stroke-width="6" stroke-miterlimit="10" d="M169.769,104.145
		c-61.056,0-110.462,49.406-110.462,110.463"/>
	<line fill="none" stroke="#ECE434" stroke-width="6" stroke-miterlimit="10" x1="169.769" y1="311.836" x2="571.31" y2="313.457"/>
	
		<line fill="none" stroke="#ECE434" stroke-width="6" stroke-miterlimit="10" x1="169.768" y1="116.064" x2="571.309" y2="117.686"/>
	<path fill="none" stroke="#ECE434" stroke-width="6" stroke-miterlimit="10" d="M669.486,215.862
		c0-54.266-43.911-98.177-98.178-98.177"/>
	<path fill="none" stroke="#ECE434" stroke-width="6" stroke-miterlimit="10" d="M571.31,313.457
		c54.266-0.001,98.176-43.912,98.175-98.179"/>
	<path fill="none" stroke="#ECE434" stroke-width="6" stroke-miterlimit="10" d="M71.591,213.66
		c0,54.265,43.91,98.176,98.177,98.176"/>
	<path fill="none" stroke="#ECE434" stroke-width="6" stroke-miterlimit="10" d="M169.768,116.064
		c-54.265,0-98.176,43.912-98.176,98.178"/>
	<line fill="none" stroke="#ECE434" stroke-width="6" stroke-miterlimit="10" x1="459.333" y1="91.607" x2="170.462" y2="90.191"/>
	<path fill="none" stroke="#ECE434" stroke-width="6" stroke-miterlimit="10" d="M337.676,324.416
		c-9.973,0-17.678-2.758-24.661-5.766c-8.371-3.605-15.707-6.336-24.672-6.336"/>
	<path fill="none" stroke="#ECE434" stroke-width="6" stroke-miterlimit="10" d="M459.333,91.607c10.916,0,19.35,2.834,26.994,5.925
		c9.163,3.706,17.192,6.512,27.006,6.512"/>
	<path fill="none" stroke="#ECE434" stroke-width="6" stroke-miterlimit="10" d="M47.327,213.293
		c0,68.447,54.379,111.123,122.442,111.123"/>
	<path fill="none" stroke="#ECE434" stroke-width="6" stroke-miterlimit="10" d="M47.328,214.027
		c0-68.448,55.074-123.836,123.135-123.836"/>
	<path fill="none" stroke="#ECE434" stroke-width="6" stroke-miterlimit="10" d="M418.667,336H540
		c68.446,0,68.667-5.333,96.76-33.033"/>
	<path fill="none" stroke="#ECE434" stroke-width="6" stroke-miterlimit="10" d="M300,116.59
		c45.21,0.415,172.333,55.841,186.333,147.777"/>
	<path fill="none" stroke="#ECE434" stroke-width="6" stroke-miterlimit="10" d="M398.425,152.109C436,172,534.38,187.153,554,254"
		/>
	<path fill="none" stroke="#ECE434" stroke-width="6" stroke-miterlimit="10" d="M476.213,182.442
		C511.439,194,536,193.533,554,203.055"/>
	<path fill="none" stroke="#ECE434" stroke-width="6" stroke-miterlimit="10" d="M459.333,204.672
		C460.667,222,461.334,228.667,452,248"/>
	<rect x="413.334" y="329.333" fill="#E30613" width="5.333" height="13.334"/>
	
		<rect x="449.334" y="241.333" transform="matrix(0.5204 -0.8539 0.8539 0.5204 4.9959 504.8956)" fill="#E30613" width="5.333" height="13.334"/>
	
		<rect x="551.334" y="196.388" transform="matrix(0.9625 0.2712 -0.2712 0.9625 75.8351 -142.6411)" fill="#E30613" width="5.333" height="13.334"/>
	
		<rect x="551.334" y="247.334" transform="matrix(0.3274 0.9449 -0.9449 0.3274 612.6142 -352.6273)" fill="#E30613" width="5.333" height="13.334"/>
	
		<rect x="483.667" y="257.701" transform="matrix(-0.0875 -0.9962 0.9962 -0.0875 265.5485 771.9748)" fill="#E30613" width="5.333" height="13.334"/>
</g>
</svg>
